<?xml version="1.0" encoding="UTF-8"?>
<svg id="Layer_1" xmlns="http://www.w3.org/2000/svg" version="1.1" viewBox="0 0 50 50">
  <!-- Generator: Adobe Illustrator 29.0.0, SVG Export Plug-In . SVG Version: 2.1.0 Build 186)  -->
  <defs>
    <style>
      .st0 {
        fill: #ffeaae;
      }
    </style>
  </defs>
  <path class="st0" d="M30,11c-3.6,0-7,1.8-9,4.7v20.3h21.5c4.1,0,7.5-3.4,7.5-7.5s-3.4-7.5-7.5-7.5-1,0-1.5.2c-.5-5.7-5.2-10.2-11-10.2ZM17,16c-.7,0-1.4,0-2,.2v19.8h2v-20ZM18,16v20h2v-19.5c-.6-.2-1.3-.4-2-.5ZM14,16.5c-.7.3-1.4.6-2,1v18.5h2v-19.5ZM11,18.3c-.8.7-1.5,1.6-2,2.6v15.1h2v-17.7ZM6.5,22c-.2,0-.4,0-.5,0v13.8c.3.1.7,0,1,0h1v-13.9c-.3-.1-.7,0-1,0s-.3,0-.5,0ZM5,22.3c-.7.2-1.4.5-2,1v11.4c.6.4,1.3.8,2,1v-13.4ZM2,24.1c-1.2,1.3-2,3-2,4.9s.8,3.6,2,4.9v-9.8Z"/>
</svg>