<?xml version="1.0" encoding="UTF-8"?>
<svg id="Layer_1" xmlns="http://www.w3.org/2000/svg" version="1.1" viewBox="0 0 50 50">
  <!-- Generator: Adobe Illustrator 29.0.0, SVG Export Plug-In . SVG Version: 2.1.0 Build 186)  -->
  <defs>
    <style>
      .st0 {
        fill: #ffeaae;
      }
    </style>
  </defs>
  <path class="st0" d="M41,4H9c-2.8,0-5,2.2-5,5v32c0,2.8,2.2,5,5,5h32c2.8,0,5-2.2,5-5V9c0-2.8-2.2-5-5-5ZM37,19h-2c-2.1,0-3,.5-3,2v3h5l-1,5h-4v15h-5v-15h-4v-5h4v-3c0-4,2-7,6-7s4,1,4,1v4Z"/>
</svg>