<?xml version="1.0" encoding="UTF-8"?>
<svg id="Livello_1" data-name="Livello 1" xmlns="http://www.w3.org/2000/svg" viewBox="0 0 4000 4000">
  <path d="M295.75,2227.73c-1.15-11.66-.96-85.9.24-94.52,10.13-1.73,20.53-.52,30.85-.74,10.44-.22,20.89-.05,31.74-.05.47,2.41,1.13,4.29,1.17,6.19.13,7.09.01,14.18.1,21.27.03,2.3.41,4.59.66,7.24h6.08c2.06-3.75,1.2-7.54,1.21-11.17.07-47.93.02-95.87.09-143.8,0-3.64-.81-7.43,1.13-11.15,3.87-.44,7.82-.89,12.08-1.38,1.91-7.59-.11-15.09,1.36-22.21,7.04-1.99,21.25-2.21,31.47-.46,1.85,7.04-.22,14.55,1.39,22.32,10.43,2.7,21.34-.23,31.83,1.73,2.74,3.4,1.54,7.27,1.55,10.83.1,34.77.06,69.54.06,104.31,0,13.84-.02,27.68.02,41.52,0,2.97.27,5.93.44,9.22,5.09,1.29,9.67,1.06,14.15.22,2.26-2.85,1.45-6.01,1.47-8.95.08-20.25.02-40.51.06-60.76,0-3.3.29-6.6.47-10.34,3.83-.41,7.1-.77,10.73-1.16,2.34-6.51.87-13.26,1.14-19.87.25-6.37.06-12.75.06-18.53,3.06-3.21,6.27-2.32,9.16-2.33,18.57-.09,37.13-.03,55.7-.06,3.32,0,6.64-.21,10.45-.34.44-2.34.99-4.22,1.1-6.12.18-3.03.06-6.07.06-9.11,0-116.12,0-232.24,0-348.36v-12.35c2.78-3.11,5.65-2.15,8.23-2.3,4.97-.3,10.03.46,15.43-.81,1.39-5.91.6-11.62.74-17.25.14-5.37.03-10.74.03-16.39,8.19-2.22,15.79-1.14,23.98-.93.38,2.19.96,4.07.99,5.97.12,7.09.02,14.18.1,21.27.03,2.28.36,4.56.6,7.33,10.08,1.25,19.65,1.07,29.86.14,1.92-13-.29-25.83,1.36-38.73,7.11-2.22,14.31-.04,21.86-1.66.39-2.04,1.13-4.22,1.16-6.41.14-9.45.02-18.9.09-28.35.02-2.97.33-5.94.54-9.43,9.06-1.48,17.63-.96,26.39-.48,2.14,4.99,1.04,9.75,1.22,14.35.2,5.06.03,10.13.05,15.19.01,4.69.06,9.37.09,14.33,7.05,2.55,13.67,1.19,20.8,1.15.45-2.06,1.16-3.92,1.2-5.8.15-6.41.03-12.83.11-19.24.03-2.28.36-4.55.53-6.63,8.23-1.94,12.16-1.96,20.82-.11,1.34,10.06-.19,20.5.97,31.31,4.39.45,8.33.86,12.85,1.33.35,1.69.96,3.54,1.08,5.42.19,3.03.06,6.07.06,9.11,0,83.38,0,166.76.03,250.13,0,3.97-.65,8.04.97,12.15,5.12,1.07,10.03,1.09,14.89.04,2.05-3.71,1.25-7.51,1.26-11.15.07-28.69.03-57.39.05-86.08,0-3.66.21-7.32.31-10.93,5.35-3.09,11.2-.08,16.46-2.84.24-1.43.68-3.03.74-4.65.13-3.37.07-6.75.07-10.13,0-160.68,0-321.36,0-482.04,0-4.34.08-8.68.12-13.2,9.71-2.97,19.33,0,28.82-2.23,1.91-13.68-.33-27.18,1.33-40.95,2.43-.33,4.71-.84,6.99-.91,39.16-1.08,80.78-.51,89.45,1.29,1.49,13.13-.44,26.6,1.12,40.28,10.14,2.68,20.39-.22,30.71,2.03.23,2.1.57,4.01.63,5.94.11,3.03.03,6.08.03,9.11,0,160.68,0,321.36,0,482.04,0,4.36,0,8.72,0,13.25,9.36,3.08,18.62.1,27.5,2.21,2.02,3.59,1.14,7.38,1.15,10.99.08,37.47.04,74.94.07,112.41,0,3.63-.45,7.34.95,11.45,6.81.88,13.38.56,19.8.2,2.28-3.71,1.47-7.16,1.48-10.43.07-26.67.04-53.33.04-80,0-40.84,0-81.69,0-122.53v-11.55c2.82-.44,5.05-1.06,7.29-1.1,7.09-.13,14.18-.01,21.27-.08,2.66-.02,5.32-.28,8.18-.45,2.25-6.54.93-12.97,1.17-19.26.24-6.38.1-12.77.13-19.41,2.19-.49,3.77-1.15,5.35-1.16,20.59-.07,41.18-.06,61.77-.03,1.31,0,2.61.37,4.45.65.38,1.95,1.04,3.83,1.06,5.72.11,11.14.05,22.28.08,33.42,0,3.34.11,6.68.17,10.23,7.73,2.63,15.16,1.07,22.43,1.31,7.35.24,14.74.31,22.11-.22,3.04-9.92-.16-19.54,2.14-28.59,7.31-1.55,47.7-1.95,62.33-.62.33,2.04.94,4.25.98,6.47.13,7.07.05,14.13.05,21.74,2.73.49,4.95,1.21,7.18,1.23,12.83.11,25.65.06,38.48.07,3.34,0,6.68,0,10.24,0,1.02,2.75,1.99,4.86,2.59,7.06,8.79,32.56,17.48,65.15,26.32,97.7,1.35,4.97,1.57,9.95,1.57,15.02-.02,66.84-.02,133.67,0,200.51,0,3.99-.4,8.03.72,12.45,5.12.46,10,.9,15.39,1.38.82,8.55.3,16.61.44,24.63.14,8.04-.3,16.11.34,24.39,5.03,1.77,9.52,1.67,14.33.14,1.87-7.71.68-15.48.89-23.16.21-7.42.04-14.85.04-22.28v-68.86c0-7.75,0-15.51,0-23.84,3.11-2.87,6.27-5.83,9.49-8.74,3.76-3.39,7.5-6.81,11.36-10.08,2.53-2.14,3.58-4.67,3.48-7.97-.15-5.06-.08-10.13,0-15.19.04-2.66.29-5.33.47-8.41,2.18-.41,4.08-1.06,5.98-1.07,21.6-.07,43.21-.07,64.81,0,1.94,0,3.87.57,5.88.88,1.42,7.07.95,13.84.64,20.51-.28,5.99,1.77,10.16,6.35,13.85,6.03,4.86,11.65,10.24,17.98,15.87v10.78c0,38.82-.01,77.64.02,116.46,0,3.65-.44,7.37.82,11.29,7.43,1.92,14.75,1.06,21.84.68,2.78-2.67,1.93-5.88,1.94-8.79.07-23.29,0-46.58.09-69.88.01-3.27-.9-6.77,1.73-10.21,3.99-.28,8.3-.59,12.57-.9,2.37-3.55,1.36-7.37,1.36-10.98.08-43.21.05-86.42.05-129.62,0-37.47,0-74.94,0-112.41v-11.63c9.9-9.91,19.91-19.91,29.9-29.94,1.77-1.77,3.81-2.67,6.32-2.59,1.69.06,3.38-.02,5.06-.02,56.37,0,112.75,0,169.12,0h6.08c11.57,11.61,22.49,22.57,34.43,34.56v262.28c3.6.52,6.78.99,10.19,1.48,2.6,10.05-.57,20.33,2.09,30.65,2.54.18,4.82.46,7.1.47,1.95.01,3.9-.28,5.77-.43,2.07-3.58,1.29-7.03,1.3-10.31.06-26.67.02-53.33.05-80,0-3.65.19-7.3.31-11.43,2.07-.36,3.65-.86,5.23-.86,38.48-.04,76.96-.04,115.45,0,1.6,0,3.2.43,4.84.66,1.61,3.98,1.01,7.73,1.02,11.37.06,26.33.01,52.66.05,78.99,0,3.64-.49,7.37,1.05,11.49,10.27,1.45,20.72-.25,31.48,1.1,1.52,5.84.57,11.56.82,17.17.23,5.32-.42,10.7.53,15.92,1.41.53,2.32,1.16,3.23,1.16,14.18.06,28.35.06,42.53,0,.91,0,1.82-.63,3.39-1.2.72-9.6.25-19.33.33-29.04.08-9.45.02-18.9.02-28.36v-260.26c0-9.45-.03-18.9,0-28.36.04-9.71-.18-19.42.2-29.58,10.72-1.62,20.85.04,31.29-1.21,3.53-13.97,4.38-28.09,6.65-41.95,2.23-13.65,3.88-27.39,5.8-41.09,1.96-14.03,3.92-28.07,5.88-42.1,1.91-13.7,3.78-27.4,5.73-41.1,2-14,4.08-27.98,6.19-42.38,2.18-.37,4.09-.98,6.01-.98,22.95-.07,45.91-.05,68.86-.02,1.66,0,3.33.29,5.46.49,3.26,11.43,3.7,23.27,5.64,34.83,1.9,11.31,3.12,22.72,4.72,34.08,1.65,11.69,3.42,23.37,5.08,35.06,1.66,11.69,3.24,23.39,4.86,35.09,1.58,11.36,3.14,22.73,4.77,34.08,1.67,11.66,3.42,23.31,5.19,35.33,10.55,2.65,21.08-.2,31.05,1.84,2.15,3.43,1.32,6.89,1.33,10.16.07,28.35.04,56.71.04,85.07,0,89.45,0,178.91.01,268.36,0,3.99.16,7.99.25,12.25,4.65,1.86,9.05,1.01,13.32,1.14,4.36.13,8.73.03,12.41.03,2.92-2.84,2.25-5.68,2.26-8.28.05-21.6.03-43.21.03-64.81,0-3.69,0-7.37,0-11.64,2.65-.44,4.85-1.11,7.05-1.13,12.15-.11,24.3-.03,36.46-.08,3.32-.01,6.63-.25,10.56-.4.33-2.31.81-4.2.82-6.1.08-11.48.02-22.95.07-34.43.02-3.3.26-6.61.38-9.4.81-.74,1.03-1.02,1.32-1.18.28-.16.63-.28.95-.28,38.81-.12,77.62-.24,116.43-.32,2,0,4.01.24,6.64.41.39,2.29,1.08,4.49,1.1,6.71.12,11.14.05,22.28.07,33.42,0,3.34.11,6.68.17,9.87,5.72,3.58,11.91.14,17.68,3.01,1.91,11.66-.32,23.84,1.24,35.97,4.42,2.73,9.25,1.27,13.82,1.38,4.63.1,9.39.84,14.31-.88.32-1.69.83-3.28.89-4.89.15-3.71.09-7.42.09-11.14,0-238.99,0-477.99.03-716.98,0-4.31-.52-8.69.85-13.52,2.48-.22,4.75-.6,7.01-.6,29.03-.04,58.06.08,87.09-.13,5.24-.04,8.74,1.44,11.91,5.77,10.38,14.15,21.17,28,31.82,41.95,2.04,2.67,4.16,5.29,6.38,8.1,11.3,2.03,22.83-.41,34.71,1.5.34,2.04.83,3.92.92,5.82.15,3.37.06,6.75.06,10.12,0,220.09,0,440.18,0,660.27v12.84c7.01,2.28,15.99,2.58,29.22,1.06.28-2.43.81-5.02.83-7.62.09-12.83.03-25.65.06-38.48,0-3.32.17-6.64.28-10.54,3.26-.3,5.86-.74,8.46-.75,15.53-.07,31.06,0,46.58-.06,3.29-.01,6.58-.3,10.27-.48.3-2.18.66-3.77.71-5.38.11-3.37.06-6.75.06-10.13,0-131.31,0-262.62.03-393.93,0-3.96-.57-8.02.98-12.55,17.24,2.39,33.54,7.82,51.01,10.48,2.54-10.49-.13-21,1.72-30.95,7.6-1.65,29.17-1.97,42.13-.65.33,1.72.96,3.6.99,5.49.12,8.44.06,16.88.07,25.32,0,3.35,0,6.7,0,10.4,7.17,3.39,14.57,4.11,21.7,5.75,6.86,1.59,13.75,3.06,21.31,4.73.4-2.56.93-4.41.94-6.27.08-11.48.04-22.95.05-34.43,0-3.34,0-6.67,0-10.56,6.71-1.98,13.09-.96,19.34-1.1,6.01-.13,12.03.11,18.47.19,1.8,10.57.66,20.64.87,30.64.2,9.76.04,19.52.04,29.42,5.49,3.5,11.2,3.68,16.87,3.73,11.14.1,22.28,0,33.42.06,2.97.02,5.94.36,8.89.55,1.88,3.65,1.21,7.06,1.21,10.33.05,27,.03,54.01.03,81.01,0,91.82,0,183.63.02,275.45,0,3.96-.46,8.01.83,12.44,6.89.3,13.5.59,20.64.9.3,2.73.74,4.99.75,7.24.06,15.87.02,31.73.05,47.6,0,3.33.19,6.65.29,9.83,6.96,1.96,27.39,2.37,40.95.89.34-1.76.92-3.65,1.02-5.57.18-3.37.06-6.75.06-10.12,0-158.65,0-317.31.03-475.96,0-4.29-.57-8.68.8-12.87,1.36-.39,2.3-.9,3.24-.9,23.29-.04,46.58-.03,69.87.03.93,0,1.87.55,3.21.97.25,1.57.67,3.17.72,4.78.12,3.37.06,6.75.06,10.13,0,158.65,0,317.31.02,475.96,0,4.33-.44,8.71.7,13.47,6.81,1.36,13.33.95,20.4.31,1.17-6.47.48-12.51.62-18.49.14-6.02.11-12.05.16-18.39,7.7-2.45,15.24-.14,22.9-1.89.33-1.84.85-3.74.96-5.65.17-3.03.06-6.07.06-9.11,0-117.47,0-234.94.01-352.41,0-3.99.16-7.98.25-12.2,5.02-1.96,9.76-.96,14.36-1.12,5.06-.18,10.13-.02,15.19-.05,4.68-.03,9.37-.12,14.18-.18,3.23-5.71.61-11.75,2.63-17.72,1.57-.35,3.43-1.08,5.31-1.11,8.1-.14,16.2-.04,24.3-.09,12-.06,9.23.58,17.51-7.48,4.35-4.24,8.69-8.5,12.87-12.91,2.51-2.65,5.35-3.75,8.98-3.72,13.84.11,27.68.09,41.52.02,3.25-.02,5.82,1.05,8.09,3.39,5.17,5.33,10.62,10.39,15.68,15.82,3.21,3.44,6.74,5.11,11.53,4.96,8.43-.27,16.88-.13,25.31-.03,2.61.03,5.21.5,8.18.8.44,6.12.84,11.7,1.27,17.59,14.89,1.73,29.36-.36,44.22,1.27,1.1,14.25.38,28.01.51,41.75.13,13.5.03,27,.03,40.51v288.62c0,13.5-.08,27.01.02,40.51.11,13.78-.47,27.57.41,41.64,1.57.51,2.78,1.24,4,1.25,6.68.04,13.42,1,20.49-.86,1.97-12.06-.27-24.24,1.32-36.43,6.33-3.09,13.4.07,20.26-2.47,1.75-7.46-.2-15.31,1.38-23.42,1.54-.38,3.07-1.09,4.6-1.09,23.63-.06,47.26-.03,70.89.01.98,0,1.95.34,3.1.56,2.56,3.23,1.47,7.1,1.49,10.65.11,27.34.06,54.68.06,82.03,0,8.1-.06,16.2.04,24.3.03,2.63.45,5.25.72,8.1,2.14.27,3.77.63,5.4.64,7.74.06,15.48.03,22.5.03,3.17-2.69,2.43-5.56,2.44-8.15.07-17.22.02-34.43.05-51.65,0-3.33.2-6.66.31-10.29,1.6-.42,2.84-1.03,4.08-1.03,28.35-.06,56.71-.05,85.06-.02.98,0,1.95.32,2.99.5,2.49,2.94,1.5,6.45,1.51,9.69.09,24.64.05,49.28.05,73.93v10.26c2.79,3.18,5.65,2.41,8.26,2.51,6.32.23,12.69-.37,18.57.45.66,1.27,1.21,1.84,1.22,2.42.13,19.57.21,39.15.27,58.72,0,1.63-.27,3.26-.47,5.46-2.22.28-4.13.66-6.05.74-3.03.12-6.07.05-9.11.05-1126.76,0-2253.51,0-3380.27-.02-4.66,0-9.38.46-14.5-.72Z"/>
  <path d="M3704.84,2264.53c1.66,8.76,1.83,40.94.5,50.4-.57.35-1.15.99-1.72.99-1133.75.16-2267.49.28-3401.24.37-1.98,0-3.96-.32-5.74-.47-1.98-7.14-2.49-33.88-1.01-50.11,1.71-.36,3.58-.99,5.47-1.11,3.03-.2,6.07-.07,9.11-.07,1127,0,2254,0,3381,0h13.62Z"/>
  <path d="M3704.76,2761.17H296.37c-1.79-9.36-1.8-41.63-.21-50.42.82-.26,1.74-.82,2.66-.82,1135.17-.04,2270.34-.04,3405.94-.04.5,1.75,1.3,3.28,1.31,4.81.1,13.84.1,27.68,0,41.52-.01,1.53-.79,3.06-1.32,4.96Z"/>
  <path d="M3330.69,2669.19h-83.84c-1.22-2.34-2.58-4.63-3.63-7.04-35.61-81.21-71.18-162.44-106.78-243.66-1.29-2.95-2.8-5.81-4.15-8.58-2.53.65-2.06,2.26-2.11,3.42-.13,3.37-.08,6.75-.08,10.12,0,77.6,0,155.2-.02,232.81,0,3.98-.19,7.97-.31,12.37-6.18,1.61-11.89.73-17.5.89-5.39.15-10.8.06-16.19.03-5.67-.03-11.34-.12-17.55-.2-.33-2.53-.7-4.43-.81-6.35-.13-2.35-.04-4.72-.04-7.08,0-95.48,0-190.97,0-286.45,0-4.02,0-8.03,0-11.9,1.56-.7,2.45-1.44,3.34-1.44,27.65-.06,55.3-.05,82.73-.05,3.41,2.63,4.15,6.42,5.59,9.77,30.93,71.48,61.81,142.99,92.71,214.48,4.68,10.83,9.35,21.67,14.07,32.48.62,1.41,1.54,2.69,2.25,3.9.92-.29,1.33-.3,1.51-.51.19-.23.19-.63.24-.96.05-.33.06-.67.08-1,.01-.34.01-.67.01-1.01,0-.34,0-.67,0-1.01,0-.34-.02-.67-.02-1.01,0-.34-.02-.67-.03-1.01-.02-.67-.03-1.35-.05-2.02-.06-2.36-.11-4.72-.17-7.08-.07-3.37-.14-6.75-.22-10.12,0-.34,0-.67-.01-1.01,0-.67,0-1.35,0-2.02,0-.34,0-.67,0-1.01,0-.34,0-.67,0-1.01,0-1.01,0-2.02,0-3.04v-213.58c0-.34,0-.67,0-1.01,0-.34,0-.67,0-1.01,0-.34,0-.67,0-1.01,0-.34,0-.67,0-1.01,0-.34,0-.67,0-1.01,0-.34,0-.67,0-1.01,0-.34.01-.67.02-1.01,0-.34,0-.68.02-1.01.02-.34.05-.67.08-1.01.03-.34.03-.68.1-1.01.07-.33.22-.64.34-.95.12-.31.25-.62.54-1.3,5.29-2.07,11.06-.76,16.68-1,5.39-.22,10.8-.16,16.19-.02,5.65.15,11.38-.67,17.37.78.3,2.57.76,4.84.82,7.11,1.48,60.51.68,294.77-1.18,305.41Z"/>
  <path d="M2899.92,2513.04c.23,24.82-1.31,48.33-6.28,71.54-2.48,11.57-5.91,22.83-10.76,33.65-12.75,28.44-34.44,46.2-64.7,53.09-10.14,2.31-20.61,3.61-30.99,4.3-17.18,1.13-34.38.79-51.47-1.94-10.38-1.66-20.45-4.36-30-8.74-17.73-8.12-31.39-20.72-41.02-37.7-8.08-14.24-12.97-29.62-16.08-45.58-5.91-30.31-6.88-60.95-5.27-91.69.94-17.85,2.68-35.64,7.1-53.06,2.91-11.48,6.66-22.63,12.06-33.19,12.86-25.16,32.8-41.47,60.34-48.35,23.5-5.87,47.3-7.27,71.29-4.54,9.35,1.06,18.76,2.52,27.82,4.97,26.9,7.27,46.49,23.75,58.87,48.74,7.55,15.25,11.92,31.49,14.76,48.17,3.46,20.35,4.67,40.86,4.34,60.33ZM2845.68,2513.21c-.92-15.47-1.54-30.96-2.85-46.4-1.11-13.13-3.69-26.01-9.33-38.1-6.55-14.03-17.16-23.06-32.28-26.7-18.33-4.42-36.73-4.37-55.18-.94-19.74,3.67-32.4,15.43-38.93,34.2-2.89,8.32-4.66,16.86-5.93,25.55-2.1,14.39-2.51,28.88-2.67,43.37-.23,20.57-.13,41.13,2.62,61.58,1.31,9.73,3.32,19.26,6.93,28.4,6.72,17.01,18.98,27.33,37.03,30.92,15.39,3.06,30.84,2.84,46.31,1.28,3.99-.4,7.94-1.51,11.84-2.54,13.9-3.68,23.74-12.26,30-25.11,3.87-7.95,6.27-16.35,7.74-25.02,3.39-20.01,4.29-40.2,4.72-60.5Z"/>
  <path d="M1344.12,2508.53c-.1,31.46-1.82,56.99-7.95,82.06-2.73,11.17-6.46,21.97-11.63,32.27-11.84,23.6-30.4,39.26-55.71,46.61-8.06,2.34-16.39,4.13-24.72,5.04-24.92,2.73-49.86,2.79-74.46-2.87-30.18-6.95-52.1-24.34-65.24-52.58-6.74-14.49-10.95-29.74-13.33-45.46-6.09-40.3-5.98-80.66.08-120.95,2.42-16.06,6.91-31.6,13.98-46.31,12.91-26.87,33.55-44.2,62.73-51.24,22.87-5.52,46-6.89,69.31-4.39,9.35,1.01,18.75,2.49,27.84,4.86,27.75,7.24,47.74,24.17,60.23,49.98,7.71,15.94,12.08,32.87,14.78,50.27,3,19.37,4.24,38.88,4.1,52.71ZM1289.18,2511.16c-.18-16.58-.9-35.43-3.67-54.16-1.49-10.05-3.97-19.83-8.39-29.02-6.34-13.21-16.47-22.08-30.78-25.66-20.67-5.17-41.42-5.11-62.04.19-13.48,3.47-23.53,11.69-29.47,24.27-3,6.35-5.27,13.14-7.05,19.94-3.69,14.1-4.29,28.63-5.04,43.11-1.41,27-.73,53.92,3.04,80.72,1.27,9.03,3.62,17.81,7.34,26.2,6.44,14.54,17.25,24.02,32.74,27.59,19.66,4.53,39.49,4.52,59.17.13,15.49-3.46,26.42-12.83,32.91-27.37,3.88-8.69,6.21-17.79,7.59-27.16,2.75-18.72,3.55-37.57,3.66-58.77Z"/>
  <path d="M907.95,2669.2h-49.86c-2.85-3.54-1.71-7.41-1.72-10.97-.09-36.78-.06-73.56-.06-110.34,0-3.67,0-7.33,0-10.91-3.94-2.6-7.75-1.67-11.31-1.68-31.38-.09-62.76-.05-94.14-.05-6.75,0-13.5-.04-20.25.03-2.32.02-4.64.29-6.96.45-2.43,3.6-1.39,7.43-1.4,11-.09,36.78-.05,73.56-.07,110.34,0,3.66-.17,7.32-.26,10.78-7.14,2.06-33.58,2.58-51.25,1.1-.37-1.69-.98-3.53-1.15-5.42-.21-2.34-.07-4.72-.07-7.08,0-95.83,0-191.66.02-287.49,0-3.97-.49-8.02.68-11.78,7.6-1.64,40.22-1.89,50.92-.41,1.92,3.23,1.08,7.02,1.09,10.6.07,35.43.03,70.86.06,106.29,0,3.64.24,7.28.36,10.4.85.75,1.07,1.03,1.36,1.17.29.15.65.24.98.24,41.49.12,82.99.23,124.48.32,1.34,0,2.7-.1,4.02-.3.61-.09,1.16-.53,2.52-1.2.79-6.53.28-13.57.37-20.56.08-7.08.02-14.17.02-21.26v-85.02c6.02-2.83,11.8-1.28,17.38-1.55,5.72-.27,11.47-.15,17.21-.03,5.65.11,11.36-.55,17.43.64.27,2.32.65,4.25.7,6.19,1.36,47.28.58,295.92-1.08,306.49Z"/>
  <path d="M1571.89,2356.12c1.44,4.84.96,8.89.96,12.86.03,64.11.02,128.23.03,192.34,0,9.79-.12,19.59,2.05,29.22.74,3.28,1.44,6.61,2.55,9.77,3.8,10.83,11.16,18.36,21.93,22.32,3.77,1.39,7.76,2.37,11.73,2.99,17.12,2.69,34.26,2.87,51.32-.54,18.51-3.69,29.75-15.03,33.84-33.29,1.32-5.89,1.88-11.99,2.36-18.02.4-5.03.23-10.12.23-15.18.01-63.1,0-126.2.02-189.3,0-3.99.15-7.98.24-12.4,8.85-1.95,17.25-.81,25.55-.97,8.37-.16,16.77-.32,25.7.23.37,2.35.76,4.24.93,6.15.15,1.67.04,3.37.04,5.06,0,66.47-.03,132.95.02,199.42.01,13.88-.91,27.64-4.08,41.19-.69,2.95-1.42,5.91-2.33,8.8-7.25,22.9-21.87,39.14-43.95,48.68-13.16,5.69-27.02,8.66-41.17,9.76-20.21,1.58-40.46,1.67-60.56-1.7-9.67-1.62-19.1-4.13-28.16-7.97-22.52-9.55-37.34-26.04-44.52-49.38-3.89-12.65-5.64-25.67-6.05-38.87-.18-5.73-.08-11.47-.08-17.21,0-63.44,0-126.88,0-190.31,0-4.03,0-8.06,0-12,1.34-.72,2.19-1.57,3.05-1.58,15.83-.08,31.67-.06,48.36-.06Z"/>
  <path d="M1929.21,2661.7c-.3-13.31-.18-25.38-.09-37.18,3.16-2.26,5.88-1.26,8.4-.95,28.86,3.57,57.83,4.47,86.87,3.56,8.47-.27,16.83-1.39,24.87-4.08,3.49-1.17,6.95-2.66,10.1-4.55,6.77-4.07,10.52-10.35,11.71-18.07,1.66-10.75,1.64-21.56.02-32.28-1.52-10.04-7.21-17.39-16.46-21.57-4.27-1.93-8.86-3.24-13.41-4.44-18.57-4.92-37.23-9.54-55.76-14.61-7.45-2.04-14.87-4.47-21.95-7.54-15.75-6.83-26.02-18.91-31.32-35.14-1.56-4.79-2.81-9.75-3.56-14.73-2.95-19.46-3.95-38.95.71-58.31,6.49-26.97,22.69-45.37,48.85-54.93,10.23-3.74,20.84-5.63,31.59-6.68,28.58-2.79,73.52,3.05,98.74,12.39,1.65,7.21,1.81,29.44.19,39.61-1.79.06-3.72.32-5.61.16-10.75-.95-21.49-2.08-32.24-2.99-20.56-1.73-41.12-1.91-61.62.66-4.64.58-9.28,1.76-13.69,3.32-8.27,2.92-13.31,9.04-15.17,17.56-2.11,9.64-2.42,19.35-.79,29.16,1.33,7.99,5.53,13.76,12.63,17.19,4.83,2.33,9.93,4.23,15.07,5.76,18.75,5.55,37.59,10.77,56.34,16.31,7.1,2.1,14.14,4.48,21.06,7.13,21.04,8.08,33.37,23.53,36.96,45.63,4.2,25.82,4.16,51.74-.09,77.57-.76,4.63-2.14,9.21-3.75,13.63-4.55,12.51-12.68,22.12-24.2,28.84-7.35,4.29-15.22,7.37-23.49,9.09-8.57,1.78-17.25,3.49-25.96,4.01-23.93,1.42-47.91,1.92-71.7-1.76-9.97-1.54-19.84-3.85-29.64-6.3-4.49-1.12-8.67-3.45-13.58-5.47Z"/>
  <path d="M2262.35,2404.19c-1.55-12.92-1.23-40.14.54-47.91,2.09-.13,4.38-.37,6.66-.4,74.64-1.13,221.46-.57,231.56.87,1.88,6.51,2.35,31.11.88,46.07-2.42,2.51-5.62,1.6-8.52,1.61-24.29.08-48.58.04-72.87.05-3.69,0-7.38,0-11.51,0-.53,2.31-1.19,4.16-1.33,6.04-.21,3.02-.07,6.07-.07,9.1,0,78.94,0,157.88-.02,236.81,0,3.97.43,8.01-.76,12.42-5.79,1.26-11.5.52-17.13.65-5.39.13-10.8.12-16.19,0-5.67-.13-11.39.58-17.5-.69-.3-2.11-.71-4.03-.8-5.96-.13-3.03-.05-6.07-.05-9.11,0-78.6,0-157.2,0-235.8,0-4.01-.11-8.01-.16-11.51-3.26-2.75-6.42-1.91-9.35-1.92-23.95-.07-47.9-.03-71.85-.05-3.66,0-7.32-.17-11.52-.27Z"/>
</svg>